Coordinates
version=1
nRows=25
nColumns=33
inDegrees=yes

Units are S.I. units (second, meters, Newtons, ...)
Angles are in degrees.

endheader
time	ground_thorax_rot_x	ground_thorax_rot_y	ground_thorax_rot_z	ground_thorax_tx	ground_thorax_ty	ground_thorax_tz	clav_prot_r	clav_elev_r	scapula_abduction_r	scapula_elevation_r	scapula_upward_rot_r	scapula_winging_r	shoulder_elv_r	plane_of_elev_r	axial_rot_r	elbow_flexion_r	pro_sup_r	wrist_flex_r	wrist_dev_r	clav_prot_l	clav_elev_l	scapula_abduction_l	scapula_elevation_l	scapula_upward_rot_l	scapula_winging_l	shoulder_elv_l	plane_of_elev_l	axial_rot_l	elbow_flexion_l	pro_sup_l	wrist_flex_l	wrist_dev_l	
8.4400	22.128893	33.667455	51.586810	-19.034609	813.722038	-41.744447	13.560219	35.473985	28.666570	45.000000	-45.000000	-1884.137294	-1727.835724	23.893955	180.000000	1081.739001	-177.618028	13.369293	14.143713	-10.635496	-45.000000	-38.387896	45.000000	-45.000000	-3857.747482	-2081.776714	26.874689	35.416833	-10.227708	42.348749	13.201251	-16.582654	
8.4500	22.254840	33.569483	51.375835	-20.608161	815.018144	-41.805768	13.579981	35.449576	28.761867	45.000000	-45.000000	-1884.275034	-1727.777251	23.928365	180.000000	1081.699480	-177.836991	13.430813	14.199412	-10.536430	-45.000000	-38.442633	45.000000	-45.000000	-3857.707540	-2081.657070	26.910668	35.574839	-10.234032	42.258107	13.284735	-16.668229	
8.4600	22.363889	33.477904	51.182149	-22.187286	816.319849	-41.861030	13.600429	35.423454	28.842997	45.000000	-45.000000	-1884.409317	-1727.715300	23.953346	180.000000	1081.647318	-178.047567	13.493334	14.242931	-10.435140	-45.000000	-38.508224	45.000000	-45.000000	-3857.671762	-2081.538746	26.942825	35.716454	-10.242004	42.187646	13.357885	-16.747474	
8.4700	22.482863	33.374624	50.975794	-23.769524	817.622522	-41.910788	13.610942	35.401082	28.937504	45.000000	-45.000000	-1884.544560	-1727.662064	23.983295	180.000000	1081.606801	-178.248871	13.553476	14.297644	-10.326316	-45.000000	-38.587428	45.000000	-45.000000	-3857.625323	-2081.436853	26.977286	35.846325	-10.243752	42.131842	13.438760	-16.844383	
8.4800	22.593772	33.273470	50.768203	-25.353149	818.921741	-41.955775	13.623614	35.379073	29.011509	45.000000	-45.000000	-1884.677261	-1727.606549	24.016142	180.000000	1081.555967	-178.447144	13.613778	14.348286	-10.214819	-45.000000	-38.679258	45.000000	-45.000000	-3857.581229	-2081.337793	27.019053	35.971619	-10.252064	42.089127	13.514631	-16.938476	
8.4900	22.704823	33.171908	50.562844	-26.937267	820.213327	-41.996743	13.629421	35.355404	29.079445	45.000000	-45.000000	-1884.805959	-1727.549575	24.049054	180.000000	1081.511993	-178.648647	13.670111	14.400447	-10.095449	-45.000000	-38.779664	45.000000	-45.000000	-3857.533969	-2081.251267	27.053173	36.076664	-10.251982	42.051344	13.587833	-17.040196	
8.5000	22.809654	33.076806	50.366655	-28.522027	821.493537	-42.034372	13.635023	35.330184	29.134637	45.000000	-45.000000	-1884.931855	-1727.490948	24.074135	180.000000	1081.465833	-178.860420	13.723721	14.446029	-9.978040	-45.000000	-38.881358	45.000000	-45.000000	-3857.487897	-2081.167591	27.079303	36.166445	-10.248520	42.014071	13.650948	-17.138677	
8.5100	22.924189	32.977834	50.165978	-30.108352	822.758941	-42.069279	13.633387	35.304845	29.200724	45.000000	-45.000000	-1885.058250	-1727.439913	24.094079	180.000000	1081.432242	-179.084238	13.771982	14.499332	-9.861693	-45.000000	-38.980180	45.000000	-45.000000	-3857.433858	-2081.092806	27.097556	36.239177	-10.238161	41.971013	13.714407	-17.246666	
8.5200	23.040179	32.879701	49.963842	-31.697810	824.006475	-42.102059	13.631854	35.279722	29.262706	45.000000	-45.000000	-1885.185986	-1727.390460	24.110335	180.000000	1081.394517	-179.321747	13.817991	14.551348	-9.751228	-45.000000	-39.071271	45.000000	-45.000000	-3857.379831	-2081.014633	27.116191	36.298637	-10.235238	41.921050	13.772923	-17.351186	
8.5300	23.156835	32.780604	49.763887	-33.292288	825.233359	-42.133337	13.625371	35.252479	29.324709	45.000000	-45.000000	-1885.312338	-1727.341106	24.124119	180.000000	1081.360088	-179.571434	13.859697	14.604745	-9.637656	-45.000000	-39.164314	45.000000	-45.000000	-3857.320519	-2080.942335	27.130407	36.338354	-10.233217	41.860567	13.829222	-17.457493	
8.5400	23.281576	32.677650	49.547867	-34.893573	826.436963	-42.163736	13.615214	35.228102	29.381802	45.000000	-45.000000	-1885.440812	-1727.294497	24.143515	180.000000	1081.324845	-179.827585	13.899294	14.660576	-9.521101	-45.000000	-39.260371	45.000000	-45.000000	-3857.255934	-2080.875561	27.151951	36.364359	-10.237821	41.788971	13.885893	-17.565200	
8.5500	23.409338	32.572637	49.325779	-36.502990	827.614723	-42.193819	13.603524	35.203069	29.434841	45.000000	-45.000000	-1885.568084	-1727.248529	24.167386	180.000000	1081.294094	-180.084850	13.934890	14.716652	-9.403555	-45.000000	-39.358855	45.000000	-45.000000	-3857.185537	-2080.811309	27.174953	36.373717	-10.250012	41.705978	13.942704	-17.670720	
8.5600	23.537851	32.469863	49.098525	-38.120817	828.763923	-42.223993	13.591738	35.178386	29.473144	45.000000	-45.000000	-1885.692503	-1727.199000	24.195676	180.000000	1081.263081	-180.338915	13.968452	14.766917	-9.283718	-45.000000	-39.451829	45.000000	-45.000000	-3857.113579	-2080.745192	27.200969	36.364659	-10.269146	41.611335	13.997522	-17.770333	
8.5700	23.659687	32.372615	48.881149	-39.746544	829.882065	-42.254453	13.581340	35.150584	29.498248	45.000000	-45.000000	-1885.808622	-1727.142952	24.220963	180.000000	1081.235326	-180.587980	13.998958	14.804708	-9.166527	-45.000000	-39.544254	45.000000	-45.000000	-3857.041558	-2080.681058	27.215456	36.328319	-10.287284	41.503820	14.044108	-17.859382	
8.5800	23.783614	32.277284	48.660387	-41.378512	830.966784	-42.285148	13.569583	35.122785	29.515253	45.000000	-45.000000	-1885.919736	-1727.083853	24.245239	180.000000	1081.212212	-180.828567	14.028314	14.835543	-9.052473	-45.000000	-39.629479	45.000000	-45.000000	-3856.971791	-2080.620156	27.222378	36.270961	-10.301960	41.382069	14.087210	-17.943869	
8.5900	23.903307	32.185819	48.445456	-43.014609	832.016372	-42.315836	13.559324	35.093828	29.528204	45.000000	-45.000000	-1886.024068	-1727.023688	24.262484	180.000000	1081.193570	-181.060285	14.057403	14.856355	-8.947717	-45.000000	-39.713914	45.000000	-45.000000	-3856.903057	-2080.562251	27.216418	36.192043	-10.315056	41.245978	14.123377	-18.017772	
8.6000	24.027292	32.094657	48.223632	-44.652063	833.029566	-42.346126	13.546951	35.065242	29.539741	45.000000	-45.000000	-1886.125499	-1726.964270	24.279350	180.000000	1081.180524	-181.281165	14.087717	14.877000	-8.848903	-45.000000	-39.785217	45.000000	-45.000000	-3856.837399	-2080.504766	27.206294	36.101272	-10.328479	41.094906	14.161774	-18.090153	
8.6100	24.153332	32.003191	47.995974	-46.288565	834.006093	-42.375558	13.534275	35.037705	29.550311	45.000000	-45.000000	-1886.221497	-1726.907185	24.294221	180.000000	1081.173180	-181.492419	14.119765	14.895406	-8.757165	-45.000000	-39.854708	45.000000	-45.000000	-3856.771586	-2080.453269	27.191781	35.997008	-10.341874	40.929561	14.197543	-18.156037	
8.6200	24.281753	31.911757	47.757734	-47.921991	834.946143	-42.403640	13.520482	35.010049	29.552320	45.000000	-45.000000	-1886.315908	-1726.852085	24.314636	180.000000	1081.169216	-181.694866	14.154459	14.918340	-8.669464	-45.000000	-39.917576	45.000000	-45.000000	-3856.707917	-2080.399824	27.181592	35.890061	-10.364125	40.752819	14.239494	-18.221313	
8.6300	24.404060	31.825748	47.523225	-49.551060	835.850452	-42.429891	13.506790	34.981975	29.546185	45.000000	-45.000000	-1886.405722	-1726.800082	24.329738	180.000000	1081.166657	-181.893529	14.192098	14.937885	-8.584612	-45.000000	-39.980593	45.000000	-45.000000	-3856.644331	-2080.347189	27.168916	35.775320	-10.391534	40.568098	14.277248	-18.277025	
8.6400	24.523036	31.742575	47.288829	-51.174870	836.719701	-42.453864	13.490763	34.952158	29.531230	45.000000	-45.000000	-1886.493187	-1726.750882	24.345195	180.000000	1081.166141	-182.091992	14.232287	14.961710	-8.501484	-45.000000	-40.039426	45.000000	-45.000000	-3856.581007	-2080.292249	27.157277	35.659919	-10.426515	40.379529	14.319535	-18.333725	
8.6500	24.641660	31.661679	47.053476	-52.793479	837.554721	-42.475175	13.473056	34.923829	29.511248	45.000000	-45.000000	-1886.576187	-1726.704170	24.356951	180.000000	1081.169595	-182.294811	14.273487	14.985782	-8.419940	-45.000000	-40.094660	45.000000	-45.000000	-3856.517776	-2080.241429	27.145062	35.542169	-10.459642	40.191251	14.356982	-18.387668	
8.6600	24.763173	31.580205	46.809068	-54.407107	838.356037	-42.493529	13.452720	34.895319	29.485385	45.000000	-45.000000	-1886.655096	-1726.661121	24.370615	180.000000	1081.181766	-182.504514	14.314059	15.017094	-8.342189	-45.000000	-40.153850	45.000000	-45.000000	-3856.455400	-2080.193516	27.135489	35.425105	-10.495980	40.008518	14.397987	-18.448186	
8.6700	24.879157	31.504488	46.575849	-56.016342	839.124129	-42.508741	13.432920	34.865381	29.452677	45.000000	-45.000000	-1886.729843	-1726.616877	24.378781	180.000000	1081.198099	-182.726155	14.352650	15.047610	-8.266435	-45.000000	-40.204167	45.000000	-45.000000	-3856.392855	-2080.144902	27.122540	35.309496	-10.526547	39.834942	14.431727	-18.507702	
8.6800	24.995361	31.428275	46.343638	-57.621355	839.859322	-42.520766	13.409481	34.836114	29.417272	45.000000	-45.000000	-1886.802380	-1726.575740	24.385560	180.000000	1081.217077	-182.962361	14.391565	15.082429	-8.191982	-45.000000	-40.253524	45.000000	-45.000000	-3856.325755	-2080.101770	27.109041	35.192723	-10.551081	39.672339	14.466286	-18.577132	
